<svg version="1.2" xmlns="http://www.w3.org/2000/svg" viewBox="0 0 640 512" width="50" height="40">
	<title>second-icon</title>
	<style>
		.s0 { fill: #000000 } 
		.s1 { fill: #f7f7f7 } 
	</style>
	<g id="Background">
		<path id="Path 0" class="s0" d="m18.5 2.9c-2.7 1.4-6.8 4.4-9 6.6-2.2 2.2-5.1 6.3-6.5 9-2 4.1-2.4 6.5-2.4 13.5 0 7 0.4 9.4 2.4 13.5 1.4 2.8 4.3 6.8 6.5 9 2.2 2.2 6 5 8.5 6.2 2.5 1.1 6.6 2.4 9.3 2.7l4.7 0.6c0 275 0.2 296.7 1.5 304.3 0.8 4.8 2.8 12.4 4.5 16.9 1.6 4.6 5.3 12.1 8.2 16.8 3.2 5.4 8.5 11.9 14.2 17.6 5.7 5.7 12.2 11 17.6 14.2 4.7 2.9 12.2 6.6 16.8 8.2 4.5 1.7 12.1 3.7 16.9 4.5 4.9 0.8 12.2 1.5 16.3 1.5 4.1 0 10.2-0.5 13.5-1 3.3-0.6 8.7-1.8 12-2.6l6-1.6c1.8-16.5 3.6-25.1 5-29.8 1.5-4.7 4.3-11.6 6.3-15.5 1.9-3.9 14.7-25.1 28.3-47.3l24.9-40.2v-245.5c7-1.2 11.1-2.5 13.8-3.7 2.6-1.3 6.5-4.1 8.7-6.3 2.2-2.2 5.1-6.3 6.5-9 2-4.1 2.4-6.5 2.4-13.5 0-7-0.4-9.4-2.4-13.5-1.4-2.8-4.3-6.8-6.5-9-2.2-2.2-6.6-5.3-9.8-6.8l-5.7-2.7-207.5 0.2zm287.5 0.3c-3 1.6-7.4 4.8-9.8 7.1-2.3 2.4-5.2 6.5-6.4 9.3-1.7 3.7-2.2 6.9-2.3 12.5 0 5.4 0.6 8.7 2.1 12 1.1 2.4 4 6.6 6.4 9.3 2.5 2.7 6.7 5.9 9.5 7.2 2.7 1.3 6.9 2.8 9.3 3.2l4.2 0.8v150.5c-36.7 60-62.7 102.7-81.5 133.5-18.8 30.8-35.6 58.4-37.3 61.5-1.7 3-4.2 9-5.6 13.2-1.5 4.3-2.9 11.3-3.2 15.5-0.5 5.5-0.2 10.3 1 16.3 1.1 5.5 3.3 11.8 6.3 18 3.8 7.7 6.2 11 12.7 17.6 5.1 5.1 10.7 9.5 15.1 11.9 3.8 2.1 10 4.8 13.6 5.9 3.7 1.1 7.1 2.4 7.5 2.8 0.5 0.5 75.8 0.8 167.4 0.8h166.5c14.8-5.1 21.7-8.1 25-10 3.3-2 9.1-6.7 13-10.5 3.8-3.9 8.7-10 10.8-13.5 2-3.6 4.9-10.1 6.3-14.5 1.4-4.4 2.8-11.6 3.1-16 0.3-4.4 0-11.3-0.6-15.3-0.6-4-2.4-10.5-3.9-14.5-1.8-4.6-24.4-42.3-63-105l-60.2-97.7v-150.5c7-1.2 11.1-2.5 13.7-3.8 2.7-1.2 6.6-4 8.8-6.2 2.2-2.2 5.1-6.3 6.5-9 2-4.1 2.4-6.6 2.4-13.5 0-7-0.4-9.4-2.4-13.5-1.4-2.8-4.3-6.8-6.5-9.1-2.2-2.2-6.6-5.2-9.8-6.7l-5.7-2.7-207.5 0.1z"/>
		<path id="Path 1" fill-rule="evenodd" class="s1" d="m0 0h11.5c6.3 0 11.5 0.2 11.5 0.5 0 0.3-2.1 1.5-4.8 2.7-2.6 1.3-6.5 4.1-8.7 6.3-2.2 2.2-4.9 5.8-5.9 8-1.1 2.2-2.3 5.4-2.7 7-0.4 1.7-0.7-2.7-0.8-10.8zm231.5 0.2l39.8-0.1c21.8 0 39.7 0.2 39.7 0.5 0 0.2-2 1.4-4.5 2.5-2.5 1.1-6.6 3.9-9.2 6.3-2.8 2.5-5.9 6.7-7.3 9.8-1.9 4.1-2.4 7-2.5 12.8 0 6.2 0.5 8.6 2.7 13 1.4 3.1 4.8 7.6 7.5 10 2.6 2.4 6.6 5.2 8.8 6.2 2.2 1 5.9 2.1 12.5 3.3v150.6l-23.6 38.7c-13 21.3-39.1 63.9-57.9 94.8-18.8 30.8-35.6 58.4-37.3 61.5-1.7 3-4.2 8.9-5.6 13.2-1.4 4.3-2.9 11.2-3.2 15.5-0.5 5.4-0.2 10.3 1 16.3 1.1 5.5 3.3 11.7 6.3 18 3.8 7.7 6.2 11 12.7 17.5 5.1 5.1 10.7 9.6 15.1 12 3.9 2.1 10 4.8 13.6 5.9 3.7 1.1 7.1 2.4 7.5 2.8 0.5 0.5-55 0.8-247.6 0.8l0.1-237.8c0.1-130.8 0.4-236.4 0.8-234.7 0.4 1.6 1.6 4.8 2.7 7 1 2.2 3.7 5.8 5.9 8 2.2 2.2 6 5 8.5 6.1 2.5 1.2 6.6 2.4 14 3.4v147.7c0 127.3 0.2 149 1.5 156.5 0.8 4.8 2.8 12.5 4.5 17 1.6 4.5 5.3 12.1 8.2 16.8 3.2 5.3 8.5 11.8 14.2 17.5 5.7 5.8 12.2 11 17.6 14.3 4.7 2.8 12.2 6.5 16.8 8.2 4.5 1.6 12.1 3.6 17 4.5 4.8 0.8 12.1 1.5 16.2 1.5 4.1 0 10.2-0.5 13.5-1.1 3.3-0.5 8.7-1.7 18-4.1l1.2-10.7c0.6-5.8 2.4-14.5 3.9-19.1 1.4-4.7 4.2-11.7 6.2-15.5 1.9-3.9 14.7-25.2 53.2-87.5v-245.5l4.5-0.8c2.5-0.4 6.6-1.8 9.3-3 2.6-1.2 6.5-4 8.7-6.2 2.2-2.2 5.1-6.3 6.5-9 2-4.1 2.4-6.6 2.4-13.5 0-7-0.4-9.5-2.4-13.5-1.4-2.8-4.3-6.9-6.5-9.1-2.2-2.2-6.5-5.2-9.5-6.7zm288 0l120.5-0.1-0.1 217.8c-0.1 129.6-0.5 215.6-1 212.5-0.5-2.9-2.2-8.5-3.7-12.5-1.8-4.7-24.4-42.3-123.2-202.8v-150.5l4.5-0.7c2.5-0.4 6.6-1.8 9.3-3 2.6-1.2 6.5-4 8.7-6.3 2.2-2.2 5.1-6.2 6.5-9 2-4.1 2.4-6.5 2.4-13.5 0-6.9-0.4-9.4-2.4-13.5-1.4-2.7-4.3-6.8-6.5-9-2.2-2.2-6.5-5.2-9.5-6.7zm120.2 480.9c0.2 16.8 0 30.6-0.2 30.8-0.3 0.1-13.2 0.1-57-0.3l8.5-2.7c4.7-1.5 11.4-4.5 15-6.5 3.6-2.1 9.6-7 13.5-10.8 3.8-3.9 8.7-10 10.8-13.5 2.1-3.6 4.9-10 6.2-14.3 1.4-4.2 2.6-8.9 2.7-10.5 0.2-1.5 0.4 11 0.5 27.8zm-543.7-417h64v96h-64zm288 0h64v82.5c0 73.7 0.2 83 1.6 87.2 0.9 2.7 12.9 22.9 26.5 45 13.7 22.2 24.9 40.5 24.9 40.8 0 0.3-38.2 0.5-85 0.5-46.7 0-85-0.2-85-0.5 0-0.3 11.2-18.6 24.9-40.8 13.6-22.1 25.6-42.3 26.5-45 1.4-4.2 1.6-13.5 1.6-87.2z"/>
	</g>
</svg>